<svg version="1" xmlns="http://www.w3.org/2000/svg" width="341.333" height="341.333" viewBox="0 0 256.000000 256.000000"><path d="M116 57.5c-14.8 2.9-31.7 11.7-42.2 21.9-4.6 4.5-4.9 4.6-11 4.6-5.3 0-7.1-.5-11.8-3.3-3-1.8-6.3-3.6-7.2-4-1-.3-2-2.2-2.4-4.4C40 64.5 35.3 60 28.6 60 18.1 60 8.8 71 9.4 82.6 10 93 18.5 98.5 28.5 94.9c3.3-1.2 3.4-1.2 15.2 5.7 1.7 1 4 3.8 5.2 6.2 2.5 5.1 3.9 1.8-13.7 31.9-7.1 12.1-13.4 23.6-14.1 25.4-3.5 10.2 1.3 21.5 11.3 26 3.9 1.8 8.4 1.9 90.2 1.9 82.9 0 86.4-.1 92.5-2 15.2-4.6 26.4-15.9 31-31.2 2.8-9.1 2.3-21.6-1.1-29.8-4.7-11.1-17-26.7-30.6-38.9-10.2-9.2-31.3-23.1-34.9-23.1-.7 0-1.5-.4-1.7-.8-.4-1-10.1-4.5-20.3-7.2-9.9-2.7-31.6-3.5-41.5-1.5z"/></svg>